# xmcd CD database file
#
# Track frame offsets:
#	150
#	19712
#	36622
#
# Disc length: 747 seconds
#
# Revision: 0
# Processed by: cddbd v1.5.1PL0 Copyright (c) Steve Scherf et al.
# Submitted via: CDex 1.51
#
DISCID=2002e903
DTITLE=吉川晃司 - アクセル
DYEAR=1900
DGENRE=J-POP
TTITLE0=アクセル
TTITLE1=ミッドナイト・ブルー
TTITLE2=アクセル（オリジナルカラオケ）
EXTD=
EXTT0=
EXTT1=
EXTT2=
PLAYORDER=
